<mxfile host="app.diagrams.net" modified="2020-10-10T23:51:36.215Z" agent="5.0 (Macintosh; Intel Mac OS X 10_13_6) AppleWebKit/537.36 (KHTML, like Gecko) Chrome/85.0.4183.121 Safari/537.36" etag="o3keshIA6lP_0ue98R_b" version="13.7.9" type="github">
  <diagram id="FRZclDx43wpthIAlCfDB" name="Page-1">
    <mxGraphModel dx="946" dy="509" grid="1" gridSize="10" guides="1" tooltips="1" connect="1" arrows="1" fold="1" page="1" pageScale="1" pageWidth="850" pageHeight="1100" math="0" shadow="0">
      <root>
        <mxCell id="0" />
        <mxCell id="1" parent="0" />
        <mxCell id="IyJ2t_7B0mmN-PN9VWdw-18" value="" style="edgeStyle=orthogonalEdgeStyle;rounded=0;orthogonalLoop=1;jettySize=auto;html=1;" edge="1" parent="1" source="IyJ2t_7B0mmN-PN9VWdw-16" target="IyJ2t_7B0mmN-PN9VWdw-17">
          <mxGeometry relative="1" as="geometry" />
        </mxCell>
        <mxCell id="IyJ2t_7B0mmN-PN9VWdw-20" value="" style="edgeStyle=orthogonalEdgeStyle;rounded=0;orthogonalLoop=1;jettySize=auto;html=1;" edge="1" parent="1" source="IyJ2t_7B0mmN-PN9VWdw-16" target="IyJ2t_7B0mmN-PN9VWdw-19">
          <mxGeometry relative="1" as="geometry" />
        </mxCell>
        <mxCell id="IyJ2t_7B0mmN-PN9VWdw-23" value="" style="edgeStyle=orthogonalEdgeStyle;rounded=0;orthogonalLoop=1;jettySize=auto;html=1;" edge="1" parent="1" source="IyJ2t_7B0mmN-PN9VWdw-16" target="IyJ2t_7B0mmN-PN9VWdw-22">
          <mxGeometry relative="1" as="geometry" />
        </mxCell>
        <mxCell id="IyJ2t_7B0mmN-PN9VWdw-41" value="" style="edgeStyle=orthogonalEdgeStyle;rounded=0;orthogonalLoop=1;jettySize=auto;html=1;" edge="1" parent="1" source="IyJ2t_7B0mmN-PN9VWdw-16" target="IyJ2t_7B0mmN-PN9VWdw-40">
          <mxGeometry relative="1" as="geometry" />
        </mxCell>
        <mxCell id="IyJ2t_7B0mmN-PN9VWdw-16" value="Middle of city, start" style="rounded=1;whiteSpace=wrap;html=1;" vertex="1" parent="1">
          <mxGeometry x="370" y="300" width="120" height="60" as="geometry" />
        </mxCell>
        <mxCell id="IyJ2t_7B0mmN-PN9VWdw-17" value="Shops and apartments" style="whiteSpace=wrap;html=1;rounded=1;" vertex="1" parent="1">
          <mxGeometry x="370" y="160" width="120" height="60" as="geometry" />
        </mxCell>
        <mxCell id="IyJ2t_7B0mmN-PN9VWdw-19" value="&lt;meta charset=&quot;utf-8&quot;&gt;&lt;span style=&quot;color: rgb(0, 0, 0); font-family: helvetica; font-size: 12px; font-style: normal; font-weight: 400; letter-spacing: normal; text-align: center; text-indent: 0px; text-transform: none; word-spacing: 0px; background-color: rgb(248, 249, 250); display: inline; float: none;&quot;&gt;Shops and apartments&lt;/span&gt;" style="whiteSpace=wrap;html=1;rounded=1;" vertex="1" parent="1">
          <mxGeometry x="370" y="440" width="120" height="60" as="geometry" />
        </mxCell>
        <mxCell id="IyJ2t_7B0mmN-PN9VWdw-27" value="" style="edgeStyle=orthogonalEdgeStyle;rounded=0;orthogonalLoop=1;jettySize=auto;html=1;" edge="1" parent="1" source="IyJ2t_7B0mmN-PN9VWdw-22" target="IyJ2t_7B0mmN-PN9VWdw-26">
          <mxGeometry relative="1" as="geometry" />
        </mxCell>
        <mxCell id="IyJ2t_7B0mmN-PN9VWdw-29" value="" style="edgeStyle=orthogonalEdgeStyle;rounded=0;orthogonalLoop=1;jettySize=auto;html=1;" edge="1" parent="1" source="IyJ2t_7B0mmN-PN9VWdw-22" target="IyJ2t_7B0mmN-PN9VWdw-28">
          <mxGeometry relative="1" as="geometry" />
        </mxCell>
        <mxCell id="IyJ2t_7B0mmN-PN9VWdw-22" value="Hospital" style="whiteSpace=wrap;html=1;rounded=1;" vertex="1" parent="1">
          <mxGeometry x="170" y="300" width="120" height="60" as="geometry" />
        </mxCell>
        <mxCell id="IyJ2t_7B0mmN-PN9VWdw-39" value="" style="edgeStyle=orthogonalEdgeStyle;rounded=0;orthogonalLoop=1;jettySize=auto;html=1;" edge="1" parent="1" source="IyJ2t_7B0mmN-PN9VWdw-26" target="IyJ2t_7B0mmN-PN9VWdw-38">
          <mxGeometry relative="1" as="geometry" />
        </mxCell>
        <mxCell id="IyJ2t_7B0mmN-PN9VWdw-26" value="Library" style="whiteSpace=wrap;html=1;rounded=1;" vertex="1" parent="1">
          <mxGeometry x="170" y="160" width="120" height="60" as="geometry" />
        </mxCell>
        <mxCell id="IyJ2t_7B0mmN-PN9VWdw-54" value="" style="edgeStyle=orthogonalEdgeStyle;rounded=0;orthogonalLoop=1;jettySize=auto;html=1;" edge="1" parent="1" source="IyJ2t_7B0mmN-PN9VWdw-28" target="IyJ2t_7B0mmN-PN9VWdw-53">
          <mxGeometry relative="1" as="geometry" />
        </mxCell>
        <mxCell id="IyJ2t_7B0mmN-PN9VWdw-28" value="Police station" style="whiteSpace=wrap;html=1;rounded=1;" vertex="1" parent="1">
          <mxGeometry x="170" y="440" width="120" height="60" as="geometry" />
        </mxCell>
        <mxCell id="IyJ2t_7B0mmN-PN9VWdw-38" value="Cinema" style="whiteSpace=wrap;html=1;rounded=1;" vertex="1" parent="1">
          <mxGeometry x="170" y="20" width="120" height="60" as="geometry" />
        </mxCell>
        <mxCell id="IyJ2t_7B0mmN-PN9VWdw-43" value="" style="edgeStyle=orthogonalEdgeStyle;rounded=0;orthogonalLoop=1;jettySize=auto;html=1;" edge="1" parent="1" source="IyJ2t_7B0mmN-PN9VWdw-40" target="IyJ2t_7B0mmN-PN9VWdw-42">
          <mxGeometry relative="1" as="geometry" />
        </mxCell>
        <mxCell id="IyJ2t_7B0mmN-PN9VWdw-45" value="" style="edgeStyle=orthogonalEdgeStyle;rounded=0;orthogonalLoop=1;jettySize=auto;html=1;" edge="1" parent="1" source="IyJ2t_7B0mmN-PN9VWdw-40" target="IyJ2t_7B0mmN-PN9VWdw-44">
          <mxGeometry relative="1" as="geometry" />
        </mxCell>
        <mxCell id="IyJ2t_7B0mmN-PN9VWdw-40" value="Fire department" style="whiteSpace=wrap;html=1;rounded=1;" vertex="1" parent="1">
          <mxGeometry x="570" y="300" width="120" height="60" as="geometry" />
        </mxCell>
        <mxCell id="IyJ2t_7B0mmN-PN9VWdw-49" value="" style="edgeStyle=orthogonalEdgeStyle;rounded=0;orthogonalLoop=1;jettySize=auto;html=1;" edge="1" parent="1" source="IyJ2t_7B0mmN-PN9VWdw-42" target="IyJ2t_7B0mmN-PN9VWdw-48">
          <mxGeometry relative="1" as="geometry" />
        </mxCell>
        <mxCell id="IyJ2t_7B0mmN-PN9VWdw-42" value="Foreign embassy" style="whiteSpace=wrap;html=1;rounded=1;" vertex="1" parent="1">
          <mxGeometry x="570" y="440" width="120" height="60" as="geometry" />
        </mxCell>
        <mxCell id="IyJ2t_7B0mmN-PN9VWdw-47" value="" style="edgeStyle=orthogonalEdgeStyle;rounded=0;orthogonalLoop=1;jettySize=auto;html=1;" edge="1" parent="1" source="IyJ2t_7B0mmN-PN9VWdw-44" target="IyJ2t_7B0mmN-PN9VWdw-46">
          <mxGeometry relative="1" as="geometry" />
        </mxCell>
        <mxCell id="IyJ2t_7B0mmN-PN9VWdw-44" value="School" style="whiteSpace=wrap;html=1;rounded=1;" vertex="1" parent="1">
          <mxGeometry x="570" y="160" width="120" height="60" as="geometry" />
        </mxCell>
        <mxCell id="IyJ2t_7B0mmN-PN9VWdw-46" value="Park" style="whiteSpace=wrap;html=1;rounded=1;" vertex="1" parent="1">
          <mxGeometry x="570" y="20" width="120" height="60" as="geometry" />
        </mxCell>
        <mxCell id="IyJ2t_7B0mmN-PN9VWdw-60" value="" style="edgeStyle=orthogonalEdgeStyle;rounded=0;orthogonalLoop=1;jettySize=auto;html=1;" edge="1" parent="1" source="IyJ2t_7B0mmN-PN9VWdw-48" target="IyJ2t_7B0mmN-PN9VWdw-59">
          <mxGeometry relative="1" as="geometry" />
        </mxCell>
        <mxCell id="IyJ2t_7B0mmN-PN9VWdw-48" value="University" style="whiteSpace=wrap;html=1;rounded=1;" vertex="1" parent="1">
          <mxGeometry x="570" y="580" width="120" height="60" as="geometry" />
        </mxCell>
        <mxCell id="IyJ2t_7B0mmN-PN9VWdw-56" value="" style="edgeStyle=orthogonalEdgeStyle;rounded=0;orthogonalLoop=1;jettySize=auto;html=1;" edge="1" parent="1" source="IyJ2t_7B0mmN-PN9VWdw-53" target="IyJ2t_7B0mmN-PN9VWdw-55">
          <mxGeometry relative="1" as="geometry" />
        </mxCell>
        <mxCell id="IyJ2t_7B0mmN-PN9VWdw-58" value="" style="edgeStyle=orthogonalEdgeStyle;rounded=0;orthogonalLoop=1;jettySize=auto;html=1;" edge="1" parent="1" source="IyJ2t_7B0mmN-PN9VWdw-53" target="IyJ2t_7B0mmN-PN9VWdw-57">
          <mxGeometry relative="1" as="geometry" />
        </mxCell>
        <mxCell id="IyJ2t_7B0mmN-PN9VWdw-53" value="Cubicles" style="ellipse;whiteSpace=wrap;html=1;rounded=1;" vertex="1" parent="1">
          <mxGeometry x="170" y="570" width="120" height="80" as="geometry" />
        </mxCell>
        <mxCell id="IyJ2t_7B0mmN-PN9VWdw-55" value="Evidence" style="ellipse;whiteSpace=wrap;html=1;rounded=1;" vertex="1" parent="1">
          <mxGeometry x="30" y="670" width="120" height="80" as="geometry" />
        </mxCell>
        <mxCell id="IyJ2t_7B0mmN-PN9VWdw-57" value="Forensics" style="ellipse;whiteSpace=wrap;html=1;rounded=1;" vertex="1" parent="1">
          <mxGeometry x="300" y="670" width="120" height="80" as="geometry" />
        </mxCell>
        <mxCell id="IyJ2t_7B0mmN-PN9VWdw-62" value="" style="edgeStyle=orthogonalEdgeStyle;rounded=0;orthogonalLoop=1;jettySize=auto;html=1;" edge="1" parent="1" source="IyJ2t_7B0mmN-PN9VWdw-59" target="IyJ2t_7B0mmN-PN9VWdw-61">
          <mxGeometry relative="1" as="geometry" />
        </mxCell>
        <mxCell id="IyJ2t_7B0mmN-PN9VWdw-64" value="" style="edgeStyle=orthogonalEdgeStyle;rounded=0;orthogonalLoop=1;jettySize=auto;html=1;" edge="1" parent="1" source="IyJ2t_7B0mmN-PN9VWdw-59" target="IyJ2t_7B0mmN-PN9VWdw-63">
          <mxGeometry relative="1" as="geometry" />
        </mxCell>
        <mxCell id="IyJ2t_7B0mmN-PN9VWdw-59" value="Research lab" style="ellipse;whiteSpace=wrap;html=1;rounded=1;" vertex="1" parent="1">
          <mxGeometry x="570" y="710" width="120" height="80" as="geometry" />
        </mxCell>
        <mxCell id="IyJ2t_7B0mmN-PN9VWdw-61" value="Auditorium" style="ellipse;whiteSpace=wrap;html=1;rounded=1;" vertex="1" parent="1">
          <mxGeometry x="413" y="800" width="120" height="80" as="geometry" />
        </mxCell>
        <mxCell id="IyJ2t_7B0mmN-PN9VWdw-63" value="Library" style="ellipse;whiteSpace=wrap;html=1;rounded=1;" vertex="1" parent="1">
          <mxGeometry x="700" y="800" width="120" height="80" as="geometry" />
        </mxCell>
      </root>
    </mxGraphModel>
  </diagram>
</mxfile>
